<?xml version="1.0" standalone="no"?>
<!DOCTYPE svg PUBLIC "-//W3C//DTD SVG 20010904//EN"
 "http://www.w3.org/TR/2001/REC-SVG-20010904/DTD/svg10.dtd">
<svg version="1.0" xmlns="http://www.w3.org/2000/svg"
 width="1200.000000pt" height="1200.000000pt" viewBox="0 0 1200.000000 1200.000000"
 preserveAspectRatio="xMidYMid meet">
<metadata>
Created by potrace 1.14, written by Peter Selinger 2001-2017
</metadata>
<g transform="translate(0.000000,1200.000000) scale(0.100000,-0.100000)"
fill="#000000" stroke="none">
<path d="M1750 8778 c0 -458 1 -488 18 -489 9 -1 413 -2 897 -3 l880 -1 0
-322 c1 -214 -3 -324 -10 -326 -5 -3 -222 -4 -482 -5 -259 0 -475 -2 -480 -5
-6 -4 -10 -897 -4 -963 1 -8 50 -12 167 -12 91 0 167 -2 169 -4 1 -2 5 -43 9
-93 4 -49 9 -108 11 -130 2 -22 7 -80 11 -130 4 -49 8 -99 9 -110 1 -11 5 -66
9 -123 4 -57 9 -113 11 -125 2 -12 6 -60 9 -107 4 -47 8 -103 11 -125 2 -22 7
-76 11 -120 3 -44 7 -98 9 -120 2 -22 6 -74 10 -115 3 -41 7 -97 10 -125 14
-168 17 -203 20 -235 1 -19 6 -75 10 -125 3 -49 8 -108 10 -130 2 -22 7 -74
10 -115 3 -41 8 -95 10 -120 3 -25 7 -76 10 -115 8 -101 15 -194 20 -240 2
-22 7 -78 10 -125 3 -47 8 -98 10 -115 2 -16 7 -70 10 -120 3 -49 8 -106 10
-125 3 -19 7 -71 10 -115 3 -44 7 -98 10 -120 2 -22 7 -80 11 -130 3 -49 8
-103 9 -120 8 -91 16 -185 20 -225 2 -25 7 -82 11 -128 3 -45 9 -83 13 -83 3
-1 1582 -2 3509 -3 l3502 -1 -5 85 c-3 47 -7 117 -10 155 -2 39 -7 113 -10
165 -3 52 -8 129 -11 170 -6 100 -13 208 -19 305 -3 44 -8 114 -10 155 -2 41
-7 111 -10 155 -3 44 -7 116 -9 160 -3 44 -8 121 -11 170 -3 50 -8 119 -10
155 -2 36 -7 106 -10 155 -3 50 -8 128 -10 175 -2 47 -7 112 -10 145 -3 33 -7
107 -10 165 -3 58 -8 139 -10 180 -13 196 -15 230 -20 295 -3 39 -7 113 -10
165 -3 52 -7 124 -10 160 -2 36 -7 106 -10 155 -2 50 -7 124 -10 165 -2 41 -7
113 -10 160 -2 47 -7 121 -10 165 -5 88 -12 197 -20 320 -3 44 -7 121 -10 170
-3 50 -8 122 -10 160 -6 89 -13 208 -20 310 -3 44 -7 114 -10 155 -4 78 -14
225 -22 320 -2 30 -6 332 -8 670 -2 338 -4 626 -4 640 l-1 25 -342 0 -343 -1
-227 -77 -227 -76 -233 78 -233 77 -110 -1 c-101 -2 -134 -8 -422 -80 l-312
-78 -313 79 c-277 69 -324 78 -413 80 -99 1 -102 0 -330 -73 -126 -41 -235
-76 -241 -78 -7 -2 -113 31 -235 72 l-224 76 -182 1 -181 1 -1 -592 c0 -326
-3 -602 -5 -615 -3 -13 -8 -59 -11 -103 -3 -44 -7 -93 -9 -110 -2 -16 -7 -64
-11 -105 -3 -41 -8 -82 -11 -92 -4 -15 -40 -16 -384 -16 -274 0 -380 4 -381
12 -1 6 -2 259 -3 561 -2 303 -6 566 -10 585 -44 225 -205 398 -426 456 -60
16 -161 18 -1202 18 l-1138 1 0 -487z m2275 150 c40 -12 94 -50 120 -85 53
-69 54 -78 52 -665 l-2 -543 -162 -1 -161 -2 1 489 c2 429 0 489 -13 489 -8 0
-413 2 -899 3 l-885 2 -1 145 c0 80 1 153 3 162 4 16 66 17 966 15 528 -2 970
-5 981 -9z m2907 -24 c79 -20 150 -38 158 -39 8 -2 97 -24 196 -49 l181 -46
336 85 c217 55 355 85 389 84 39 0 123 -23 316 -86 l263 -86 242 80 242 81 3
-316 c1 -173 0 -318 -3 -321 -7 -6 -3553 -9 -3572 -3 -10 3 -13 77 -13 324 0
252 3 319 13 315 6 -3 116 -40 243 -83 l230 -77 255 85 c306 103 315 104 521
52z m2313 -1022 c-3 -42 -7 -111 -10 -152 -6 -99 -15 -239 -20 -320 -2 -36 -7
-108 -10 -160 -3 -52 -8 -124 -10 -160 -2 -36 -7 -108 -10 -160 -3 -52 -8
-124 -10 -160 -2 -36 -7 -108 -10 -160 -3 -52 -8 -124 -10 -160 -2 -36 -7
-108 -10 -160 -11 -186 -14 -236 -20 -320 -3 -47 -7 -121 -10 -165 -3 -44 -7
-111 -10 -150 -3 -38 -7 -115 -10 -170 -3 -55 -7 -127 -10 -160 -2 -33 -7
-105 -10 -160 -3 -55 -8 -129 -10 -165 -3 -36 -7 -108 -11 -160 -3 -52 -7
-120 -9 -150 -2 -30 -6 -102 -10 -160 -11 -184 -15 -243 -20 -320 -6 -96 -13
-211 -20 -325 -3 -49 -8 -119 -10 -155 -4 -64 -12 -194 -20 -320 -3 -57 -15
-251 -19 -320 l-2 -25 -1550 -2 -1550 -2 8 72 c4 40 10 117 14 172 3 55 8 108
9 117 2 10 7 61 10 115 7 102 11 128 19 141 3 5 334 8 737 8 402 -1 735 1 739
4 4 3 -23 51 -61 108 -38 57 -69 107 -69 112 0 4 -3 10 -7 12 -12 5 -396 581
-396 593 0 6 122 194 271 418 150 223 272 408 272 410 0 2 -304 3 -676 3
l-676 -1 7 95 c4 52 8 111 10 130 2 19 7 76 10 125 4 50 9 104 10 120 2 17 6
66 9 110 4 44 9 100 11 125 2 25 7 80 10 123 3 42 8 95 10 116 2 22 7 72 10
113 3 40 8 102 11 138 4 36 6 75 5 88 -1 25 -16 23 199 23 l145 0 0 490 0 489
-30 1 c-16 0 -210 1 -430 2 l-400 2 1 25 c2 27 15 172 19 205 1 11 3 37 4 57
l1 37 1800 1 1800 0 -5 -78z m-3740 -737 l0 -160 -1307 -3 -1307 -2 1 157 c0
87 2 160 4 163 1 3 589 5 1306 5 l1303 0 0 -160z m-350 -590 c-3 -55 -8 -116
-10 -135 -2 -19 -6 -73 -10 -120 -4 -47 -8 -101 -10 -120 -4 -34 -10 -114 -20
-250 -3 -36 -8 -85 -10 -110 -4 -45 -11 -124 -19 -230 -13 -164 -18 -216 -22
-230 -3 -13 -36 -15 -223 -14 -198 1 -219 -1 -211 -15 5 -9 94 -144 198 -300
105 -156 189 -291 187 -300 -1 -9 -6 -59 -9 -111 -4 -52 -9 -106 -11 -120 -2
-14 -7 -63 -10 -110 -13 -182 0 -152 -190 -437 -96 -145 -175 -264 -175 -265
0 -2 69 -3 152 -3 l153 0 -1 -25 c-2 -29 -13 -173 -19 -245 -5 -48 -6 -70 -20
-250 -4 -44 -8 -86 -11 -93 -3 -10 -140 -12 -669 -12 l-665 1 -1 42 c-1 23 -3
51 -4 62 -1 11 -5 61 -9 110 -4 50 -9 108 -11 130 -2 22 -7 72 -10 110 -5 67
-8 106 -20 240 -3 33 -7 87 -10 120 -9 112 -17 210 -21 250 -2 22 -6 74 -9
115 -3 41 -7 95 -10 120 -2 25 -7 79 -10 120 -3 41 -8 95 -10 120 -3 25 -7 81
-10 125 -3 44 -7 96 -10 115 -2 19 -7 69 -10 110 -11 139 -15 195 -20 240 -2
25 -7 83 -10 130 -4 47 -8 101 -10 120 -2 19 -7 73 -10 120 -4 47 -8 101 -10
120 -2 19 -6 76 -10 125 -3 50 -8 101 -10 115 -2 14 -7 67 -10 118 -4 52 -8
101 -10 110 -1 10 -6 64 -10 122 -4 58 -8 116 -10 130 -1 14 -6 67 -10 119 -4
51 -8 101 -10 110 -1 10 7 18 23 21 14 3 448 5 965 5 l939 0 -7 -100z"/>
</g>
</svg>
